<svg width="50" height="24" viewBox="0 0 50 24" fill="none" xmlns="http://www.w3.org/2000/svg">
<path d="M22.5967 11.2975C22.5967 11.2975 26.3814 11.381 26.4318 11.3726C28.0179 11.3726 29.4332 10.241 29.4332 8.49823C29.4332 6.95775 28.3045 5.66033 26.1427 5.66033C25.9574 5.66033 25.3907 5.65998 24.7779 5.65962L24.3828 5.01468C24.7865 5.01468 25.5339 5.01468 25.8535 5.01468C26.4913 5.01468 27.2812 4.54724 27.6857 3.81446L28.1418 3.09407L28.4344 4.68557C28.2733 4.86845 28.1042 5.03678 27.9707 5.17044C28.4086 5.26655 28.9365 5.53925 29.4924 5.99574C30.0486 6.4515 30.6269 7.53011 30.6269 8.49823C30.6269 10.0441 29.5938 12.0743 27.0189 12.0743C26.4122 12.0743 20.9112 12.0326 20.9112 12.0326V11.4901C21.0884 11.4403 21.442 11.2066 21.442 10.6809C21.442 10.1553 21.4391 1.34592 21.4391 1.34592C21.4391 1.008 21.2049 0.674397 20.9112 0.586549C20.9112 0.494929 20.9112 0.127909 20.9112 0.0361092C21.0037 0.0361092 25.3309 0 25.6175 0C25.9037 0 26.7729 0.00323374 27.3639 0.250608C27.8252 0.44355 28.1583 0.716614 28.3858 0.974049L26.8115 0.97369C26.4892 0.796917 26.1216 0.695056 25.7408 0.695056H22.5907L22.5967 11.2975Z" fill="#111015"/>
<path d="M27.3077 1.37939C27.6284 1.37939 29.7732 1.38353 29.8434 1.38353C29.8434 1.46149 29.8434 1.83552 29.8434 1.96361C29.3971 2.10499 29.2623 2.36404 29.4055 2.90604L29.9876 5.91711C29.9085 5.83142 29.8281 5.75507 29.7485 5.68896C29.4722 5.46224 29.195 5.2729 28.9244 5.12379L28.3451 1.98499L27.3102 3.6611C26.9682 4.24513 26.3304 4.61754 25.8535 4.61754H25.3766L27.3077 1.37939Z" fill="#111015"/>
<path d="M22.9918 3.42126V5.58566L24.5902 8.14312L25.8653 6.05166H24.9555L24.7326 6.40216L24.5281 6.05166L22.9918 3.42126Z" fill="#111015"/>
<path d="M21.0338 1.38354C20.5881 1.38354 19.9564 1.38354 19.8933 1.38354C19.8933 1.47552 19.8933 1.88009 19.8933 1.97153C20.3653 2.15495 20.4368 2.40556 20.3748 2.70306C20.3748 2.70306 18.5327 12.2686 18.4431 12.6746C18.3531 13.0806 17.9981 13.2087 17.8044 13.2171C17.8044 13.4005 17.8044 13.8072 17.8044 13.8072H20.117C20.117 13.8072 20.117 13.3673 20.117 13.2252C19.5867 13.2252 19.3886 12.683 19.473 12.316C19.5094 12.1525 20.5471 6.47494 21.0295 3.82352L21.0338 1.38354Z" fill="#111015"/>
<path d="M30.2732 12.4242C30.2717 12.9614 29.9571 13.2087 29.6036 13.2087V13.7948H31.9202C31.9202 13.7948 31.9202 13.3629 31.9202 13.2131C31.6127 13.1214 31.3429 13.0334 31.2421 12.3998L30.7655 9.93665C30.606 10.3735 30.3689 10.8043 30.0437 11.1836L30.2732 12.4242Z" fill="#111015"/>
<path d="M2.78807 20.7628C2.97129 20.595 3.06944 20.3252 3.06944 20.0158C3.06944 19.5116 2.63641 19.0436 2.00221 19.0436H0V19.2972C0.15583 19.2972 0.304404 19.3923 0.304404 19.5793C0.304404 19.5793 0.305492 23.1354 0.305492 23.3474C0.305492 23.5723 0.147848 23.6361 0.0206807 23.6512V23.8912C0.0206807 23.8912 2.04339 23.8912 2.28829 23.8912C3.22309 23.8912 3.81267 22.9592 3.81267 22.299C3.81249 21.6681 3.43715 21.1257 2.78807 20.7628ZM1.74243 19.3077C2.02343 19.3077 2.25727 19.389 2.3741 19.5428C2.55532 19.7449 2.6034 19.961 2.50308 20.2361C2.45482 20.3536 2.28793 20.5593 2.07604 20.6164C1.99278 20.6353 1.89572 20.6503 1.74932 20.6503H0.784774L0.781146 19.3075H1.74243V19.3077ZM1.97246 23.5716C1.95432 23.5754 0.781328 23.5716 0.781328 23.5716V20.9575C0.781328 20.9575 1.89209 20.9586 2.0706 20.9586C2.60394 20.9586 3.28241 21.5295 3.28241 22.2489C3.28241 22.9682 2.61265 23.5716 1.97246 23.5716Z" fill="#111015"/>
<path d="M7.30733 23.4027L5.75338 18.7421L5.5121 19.4673L5.60136 19.715L4.36016 23.4469C4.29141 23.643 4.11 23.6511 3.99371 23.6511V23.8911H4.98965V23.6511C4.90185 23.6497 4.68143 23.5164 4.75581 23.2803L4.83763 23.0403L6.70868 23.0358L6.79793 23.3101C6.83367 23.4161 6.75929 23.5909 6.60582 23.6511V23.8911H7.68647V23.6511C7.43214 23.6511 7.37427 23.5886 7.30733 23.4027ZM4.94937 22.7042L5.7668 20.2281L6.59276 22.6997L4.94937 22.7042Z" fill="#111015"/>
<path d="M10.8339 19.0436H11.7607V19.2972C11.5917 19.2972 11.4688 19.4334 11.4688 19.5692V23.3752C11.4688 23.49 11.5554 23.6514 11.7963 23.6514V23.8914H11.1536L8.65283 20.0027V23.3722C8.65283 23.5624 8.80776 23.6515 8.98917 23.6515V23.8915H8.06362V23.6515C8.21854 23.6515 8.34317 23.5459 8.34317 23.4045L8.33755 19.5723C8.33755 19.4408 8.26063 19.3057 8.04874 19.2976C8.03532 19.2972 8.02153 19.2976 8.00702 19.2976V19.0439H8.67787L11.1474 22.8773L11.153 19.5608C11.153 19.419 11.0358 19.2976 10.8337 19.2976V19.0436" fill="#111015"/>
<path d="M15.2309 19.0145C15.0346 18.9667 14.8294 18.9412 14.6183 18.9412C13.2078 18.9412 12.064 20.0739 12.064 21.4706C12.064 22.8674 13.2078 24.0001 14.6183 24.0001C15.2175 24.0001 15.768 23.7958 16.2038 23.4538L15.9667 23.16C15.589 23.4638 15.1072 23.646 14.5823 23.646C13.5347 23.646 12.5758 22.6719 12.5758 21.4706C12.5758 20.2693 13.5405 19.2949 14.5762 19.2949C15.0917 19.2949 15.5668 19.4708 15.9427 19.7651L16.1836 19.4602L15.2327 18.623L15.0542 18.844L15.2309 19.0145Z" fill="#111015"/>
<path d="M18.6766 18.9409C17.2413 18.9409 16.0777 20.0714 16.0777 21.4659C16.0777 22.8606 17.2413 23.9908 18.6766 23.9908C20.1119 23.9908 21.2754 22.8606 21.2754 21.4659C21.2754 20.0714 20.1119 18.9409 18.6766 18.9409ZM18.6766 23.6371C17.5183 23.6371 16.5793 22.6652 16.5793 21.4659C16.5793 20.2669 17.5183 19.2946 18.6766 19.2946C19.8347 19.2946 20.7736 20.2669 20.7736 21.4659C20.7736 22.6652 19.8347 23.6371 18.6766 23.6371Z" fill="#111015"/>
<path d="M43.6301 19.0145C43.4338 18.9667 43.2286 18.9412 43.0175 18.9412C41.607 18.9412 40.4632 20.0739 40.4632 21.4706C40.4632 22.8674 41.607 24.0001 43.0175 24.0001C43.6163 24.0001 44.1672 23.7958 44.603 23.4538L44.3659 23.16C43.9878 23.4638 43.5064 23.646 42.9815 23.646C41.9339 23.646 40.975 22.6719 40.975 21.4706C40.975 20.2693 41.9397 19.2949 42.9754 19.2949C43.4909 19.2949 43.966 19.4708 44.3419 19.7651L44.5828 19.4602L43.6319 18.623L43.4534 18.844L43.6301 19.0145Z" fill="#111015"/>
<path d="M47.0759 18.9409C45.6406 18.9409 44.4771 20.0714 44.4771 21.4659C44.4771 22.8606 45.6406 23.9908 47.0759 23.9908C48.5112 23.9908 49.6744 22.8606 49.6744 21.4659C49.6744 20.0714 48.5112 18.9409 47.0759 18.9409ZM47.0759 23.6371C45.9173 23.6371 44.9787 22.6652 44.9787 21.4659C44.9787 20.2669 45.9173 19.2946 47.0759 19.2946C48.2339 19.2946 49.1732 20.2669 49.1732 21.4659C49.173 22.6652 48.2337 23.6371 47.0759 23.6371Z" fill="#111015"/>
<path d="M23.2517 20.314H22.1669V20.5274C22.2919 20.5274 22.3465 20.6334 22.3465 20.6923V22.1958C22.3465 22.2782 22.2512 22.3467 22.1669 22.3467V22.5551H23.29C23.8382 22.5551 24.3866 22.0625 24.3866 21.4186C24.3866 20.7748 23.8288 20.314 23.2517 20.314ZM23.1082 22.3372H22.6826V20.5389H23.1082C23.5608 20.5389 24.0252 20.8631 24.0252 21.4175C24.0254 21.9716 23.6263 22.3372 23.1082 22.3372Z" fill="#111015"/>
<path d="M30.1917 19.0436H30.9077V19.2972C30.7475 19.2972 30.5846 19.4408 30.6271 19.6267L31.4196 23.4336C31.4612 23.5872 31.5742 23.6512 31.7233 23.6512V23.8912H30.6338V23.6512C30.9044 23.6512 30.9776 23.4536 30.9551 23.3512C30.9075 23.1333 30.2049 19.7902 30.2049 19.7902L29.3474 21.5825L28.4188 19.7902L27.7875 23.3397C27.7697 23.4692 27.8767 23.6512 28.0614 23.6512V23.8912H27.0671V23.6512C27.2402 23.6512 27.4243 23.6284 27.4662 23.4281L28.1331 19.6088C28.1643 19.432 28.0104 19.3172 27.8889 19.2972V19.0436H28.5102L29.3833 20.7299L30.1917 19.0436Z" fill="#111015"/>
<path d="M32.0909 19.0436H34.2476L34.9386 19.4366L34.6527 19.637L34.2119 19.3833H32.8546V20.6275H33.2359C33.3727 20.6275 33.5214 20.5566 33.5214 20.3327H33.7656V21.3057H33.5693C33.5693 21.1699 33.4741 20.9811 33.2894 20.9811H32.849V23.5355H34.5188L35.1824 23.157L35.5102 23.3399L34.5515 23.8914H32.091V23.6514C32.2041 23.6514 32.3844 23.5811 32.3844 23.3808V19.5604C32.3844 19.4453 32.2877 19.2972 32.091 19.2972V19.0436H32.0909Z" fill="#111015"/>
<path d="M35.9075 19.2972C35.9097 19.2965 35.8515 19.2899 35.8473 19.2972V19.0436H36.9031V19.2972C36.7848 19.3289 36.6707 19.5015 36.7366 19.6664L37.2782 20.8692L37.8406 19.6838C37.921 19.5049 37.8052 19.3287 37.6652 19.2972V19.0436H38.6593V19.2972C38.602 19.2972 38.5552 19.2972 38.5214 19.2972C38.379 19.2972 38.305 19.3653 38.2542 19.4835L37.433 21.2108L38.4658 23.4958C38.5309 23.6519 38.6829 23.6512 38.8081 23.6512V23.8912H37.7185V23.6512C37.8199 23.6512 37.9567 23.4575 37.8854 23.2982L37.1888 21.7417L36.4742 23.2569C36.3803 23.4692 36.5813 23.6512 36.6709 23.6512V23.8912H35.6944V23.6512C35.8446 23.6512 35.9739 23.646 36.0575 23.4811L37.0368 21.3997L36.1658 19.4695C36.1123 19.3547 36.0369 19.2972 35.9075 19.2972Z" fill="#111015"/>
<path d="M39.103 19.2972V19.0436H40.1908V19.2972C40.054 19.2972 39.8769 19.3808 39.8769 19.5734V23.3706C39.8769 23.5046 39.9914 23.6514 40.1908 23.6514V23.8914H39.103V23.6514C39.2784 23.6514 39.4123 23.552 39.4123 23.3706C39.4123 23.3706 39.4123 19.6989 39.4123 19.5734C39.4123 19.4485 39.3115 19.2972 39.103 19.2972Z" fill="#111015"/>
<path d="M24.5381 20.5259C24.6745 20.5259 24.724 20.6169 24.724 20.6964V22.1778C24.724 22.2904 24.6301 22.3456 24.5381 22.3456V22.5536H25.8872L26.508 22.1976L26.3072 22.0828L25.8473 22.3434H25.0368V21.1894H25.2781C25.3762 21.1894 25.4431 21.2799 25.4431 21.3575V21.4017H25.5926V20.8157H25.441V20.8599C25.441 20.9726 25.3539 21.0259 25.2781 21.0259H25.039V20.5259H25.7401L26.0104 20.6831L26.1844 20.5547L25.7691 20.314H24.5383" fill="#111015"/>
<path d="M34.1153 17.5216L32.9092 18.2145L33.041 18.4395L34.2471 17.7466L34.1153 17.5216Z" fill="#111015"/>
</svg>
