<svg width="24" height="31" viewBox="0 0 24 31" fill="none" xmlns="http://www.w3.org/2000/svg">
<g clip-path="url(#clip0_8_9)">
<path d="M12.0555 0.404785C9.98917 0.404785 8.20098 1.15306 6.69095 2.64961C5.18091 4.14616 4.4259 5.91838 4.4259 7.96629V11.747C3.35298 11.747 2.44895 12.1113 1.7138 12.8399C0.978657 13.5685 0.611084 14.4645 0.611084 15.5278V26.8701C0.611084 27.9334 0.978657 28.8294 1.7138 29.5579C2.44895 30.2865 3.35298 30.6508 4.4259 30.6508H19.6852C20.7581 30.6508 21.6621 30.2865 22.3973 29.5579C23.1324 28.8294 23.5 27.9334 23.5 26.8701V15.5278C23.5 14.4645 23.1324 13.5685 22.3973 12.8399C21.6621 12.1113 20.7581 11.747 19.6852 11.747V7.96629C19.6852 5.91838 18.9301 4.14616 17.4201 2.64961C15.9101 1.15306 14.1219 0.404785 12.0555 0.404785ZM20.9369 15.5278V26.8701C20.9369 27.6971 20.5196 28.1106 19.6852 28.1106H4.4259C3.59141 28.1106 3.17416 27.6971 3.17416 26.8701V15.5278C3.17416 14.7008 3.59141 14.2872 4.4259 14.2872H19.6852C20.5196 14.2872 20.9369 14.7008 20.9369 15.5278ZM6.98898 11.747V7.96629C6.98898 6.58789 7.4857 5.40641 8.47914 4.42184C9.47258 3.43726 10.6647 2.94498 12.0555 2.94498C13.4463 2.94498 14.6385 3.43726 15.6319 4.42184C16.6254 5.40641 17.1221 6.58789 17.1221 7.96629V11.747H6.98898ZM12.0555 15.5278C10.9826 15.5278 10.0786 15.8921 9.34343 16.6207C8.60829 17.3493 8.24071 18.2452 8.24071 19.3086C8.24071 20.0962 8.47914 20.8149 8.95599 21.4648C9.43284 22.1146 10.0488 22.5773 10.8038 22.853V24.3299C10.8038 25.1963 11.221 25.6295 12.0555 25.6295C12.89 25.6295 13.3073 25.1963 13.3073 24.3299V22.853C15.016 22.2623 15.8703 21.0808 15.8703 19.3086C15.8703 18.2452 15.5028 17.3493 14.7676 16.6207C14.0325 15.8921 13.1284 15.5278 12.0555 15.5278ZM12.0555 20.5491C11.221 20.5491 10.8038 20.1356 10.8038 19.3086C10.8038 18.4815 11.221 18.068 12.0555 18.068C12.89 18.068 13.3073 18.4815 13.3073 19.3086C13.3073 20.1356 12.89 20.5491 12.0555 20.5491Z" fill="white"/>
</g>
<defs>
<clipPath id="clip0_8_9">
<rect width="22.8889" height="30.246" fill="white" transform="translate(0.611084 0.404785)"/>
</clipPath>
</defs>
</svg>
